<svg width="223" height="412" viewBox="0 0 223 412" fill="none" xmlns="http://www.w3.org/2000/svg">
<path d="M111.675 402.917L111.109 397.533C111.036 396.846 110.857 396.009 110.74 395.328C110.291 392.716 108.894 390.552 106.881 388.827L106.5 388.5H91L90.8998 389.001C90.6371 390.314 90.0633 391.546 89.2264 392.592C88.7445 393.194 88.1816 393.727 87.5537 394.176L86.5218 394.913C85.5101 395.636 84.5794 396.463 83.7398 397.38C81.8932 399.397 79.3968 402.103 79 402.5C78.6465 402.853 78 405.5 78 406.5C78 406.771 78.0767 407.903 78.2302 408.862C78.3476 409.596 78.9063 410.135 79.6111 410.37C79.8686 410.456 80.1383 410.5 80.4097 410.5H104H109.49C110.372 410.5 111.136 409.887 111.327 409.026C111.773 407.022 111.89 404.959 111.675 402.917Z" fill="#ADADAD"/>
<path d="M88.5 395L88.4547 394.502L88.4079 394.506L88.3626 394.519L88.5 395ZM94 394.5L94.0707 394.005L94.0129 393.997L93.9547 394.002L94 394.5ZM97.4293 395.495C97.7027 395.534 97.9559 395.344 97.995 395.071C98.034 394.797 97.8441 394.544 97.5707 394.505L97.5 395L97.4293 395.495ZM85 396L85.1374 396.481L88.6374 395.481L88.5 395L88.3626 394.519L84.8626 395.519L85 396ZM88.5 395L88.5453 395.498L94.0453 394.998L94 394.5L93.9547 394.002L88.4547 394.502L88.5 395ZM94 394.5L93.9293 394.995L97.4293 395.495L97.5 395L97.5707 394.505L94.0707 394.005L94 394.5Z" fill="url(#paint0_linear_26_76)" fill-opacity="0.27"/>
<path d="M137.456 395.036L138 391.5L143 388L156.5 386.5L160.935 389.323C161.598 389.744 162 390.476 162 391.262C162 392.395 162.335 393.503 162.964 394.446L164 396L166.284 396.415C168.387 396.798 170.345 397.751 171.943 399.172L172.048 399.265C173.332 400.406 174.332 401.83 174.97 403.425C175.646 405.116 175.895 406.947 175.694 408.756L175.652 409.13C175.564 409.92 174.919 410.53 174.125 410.57C167.318 410.919 155.873 411.5 155.5 411.5C155.127 411.5 145.43 411.21 139.668 411.035C138.934 411.013 138.258 410.637 137.851 410.027C137.621 409.682 137.49 409.281 137.472 408.868L137.13 400.996C137.044 399.003 137.153 397.007 137.456 395.036Z" fill="#ADADAD"/>
<path d="M163.879 396.485L164.364 396.606L164.606 395.636L164.121 395.515L164 396L163.879 396.485ZM162 395.5L162.121 395.015L162.102 395.01L162.082 395.007L162 395.5ZM159 395L159.082 394.507L159.041 394.5H159V395ZM156.5 395V394.5H156.475L156.45 394.502L156.5 395ZM151.45 395.002C151.175 395.03 150.975 395.275 151.002 395.55C151.03 395.825 151.275 396.025 151.55 395.998L151.5 395.5L151.45 395.002ZM164 396L164.121 395.515L162.121 395.015L162 395.5L161.879 395.985L163.879 396.485L164 396ZM162 395.5L162.082 395.007L159.082 394.507L159 395L158.918 395.493L161.918 395.993L162 395.5ZM159 395V394.5H156.5V395V395.5H159V395ZM156.5 395L156.45 394.502L151.45 395.002L151.5 395.5L151.55 395.998L156.55 395.498L156.5 395Z" fill="url(#paint1_linear_26_76)" fill-opacity="0.27"/>
<path d="M81 312.807V311.5H167.5L167.972 312.915C168.303 313.908 168.125 314.999 167.498 315.836C167.171 316.272 166.739 316.616 166.242 316.837L163.871 317.891C162.967 318.292 161.989 318.5 161 318.5H160.5L159.572 318.407C158.818 318.332 158.226 319.041 158.434 319.769C158.478 319.923 158.508 320.08 158.524 320.239L159 325L160 338L160.5 348.5L162 365.5C162.5 372.5 163.5 386.6 163.5 387C163.5 389.153 161.66 390.847 159.514 390.668L157.5 390.5L153.584 389.898C151.871 389.634 150.129 389.634 148.416 389.898C145.84 390.294 143.389 391.277 141.254 392.772L139.5 394C138.573 394.696 137.266 394.168 136.832 393.094C136.723 392.824 136.61 392.61 136.5 392.5C136.1 392.1 136.333 385.333 136.5 382L135.5 368.5L135 351.5V336V326.762C135 325.923 134.908 325.087 134.726 324.268L134.132 321.596C134.046 321.207 133.85 320.85 133.569 320.569C133.203 320.203 132.714 319.985 132.197 319.958L123.5 319.5L116 320C114.546 320.291 113.5 321.567 113.5 323.05V334L113 353L111.5 367.5L110.5 380L110.91 388.608C110.969 389.859 110.797 391.109 110.401 392.297C110.18 392.961 109.461 393.32 108.797 393.099L108.087 392.862C107.363 392.621 106.658 392.329 105.975 391.988L105.022 391.511C103.02 390.51 100.873 389.827 98.6603 389.486C96.5649 389.164 94.4334 389.152 92.3346 389.452L92 389.5L88.3871 390.223C87.4692 390.406 86.5897 390.746 85.787 391.228C85.169 391.599 84.3717 391.23 84.2533 390.52L84.188 390.128C84.0631 389.378 84.0213 388.618 84.0631 387.859C84.2387 384.676 84.5 379.854 84.5 379.5C84.5 379.1 84.8333 376.333 85 375L86 366V358L86.5 351.5L87 343L87.5 338C87.6667 335 88 328.8 88 328C88 327.322 88.2392 323.249 88.4136 320.398C88.4641 319.573 87.9545 318.818 87.1711 318.557C87.0573 318.519 86.9476 318.47 86.8434 318.411L83.5 316.5C81.9901 315.896 81 314.434 81 312.807Z" fill="#333333"/>
<path d="M179.5 255L176 247L152.5 251.5L154.692 270.291C155.559 277.723 157.518 284.986 160.506 291.846L168.286 309.712C169.078 311.531 169.326 313.542 169 315.5L168.612 318.6C168.205 321.858 168.137 325.149 168.41 328.421L168.74 332.378C168.912 334.448 169.392 336.48 170.163 338.408L171.126 340.815C172.336 343.841 174.577 346.341 177.452 347.875C179.453 348.942 181.686 349.5 183.954 349.5H186.249C187.741 349.5 189.225 349.277 190.652 348.838C193.487 347.966 195.998 346.271 197.869 343.969L198.506 343.184C200.47 340.768 201.784 337.891 202.325 334.825L202.621 333.145C202.873 331.718 203 330.272 203 328.823V321.5C203 321.1 202 314.333 201.5 311L199.5 301L196.5 291.5L192.5 281.5L188.5 272L183 262L179.5 255Z" fill="#BABABA"/>
<path d="M95.0406 204.411L95.409 204.253C95.8022 204.085 96.1791 203.881 96.535 203.643C98.1107 202.593 100.045 202.225 101.896 202.625L119.044 206.323C122.668 207.105 126.373 207.451 130.08 207.353L141.038 207.065C142.647 207.022 144.21 206.527 145.549 205.634L146.179 205.214C146.392 205.072 146.623 204.959 146.866 204.878C147.592 204.636 148.384 204.692 149.069 205.034L150.667 205.833C151.546 206.273 152.326 206.889 152.959 207.642L162.5 219L172.5 233L178 242L179.352 244.027C179.767 244.65 179.918 245.412 179.771 246.146C179.6 247 179.044 247.728 178.265 248.117L176.5 249L174 250.5L170.5 253C167.517 255.32 164.898 258.074 162.731 261.17L162.5 261.5L164 269L167.5 288L170.5 302L171.429 311.288C171.476 311.756 171.409 312.228 171.234 312.664C170.791 313.773 169.717 314.5 168.522 314.5H160.5L132 315.5L113 316L94.5 314.5L86.4431 313.401C84.4885 313.135 82.5085 313.11 80.5478 313.328C79.7221 313.42 79 312.773 79 311.943V305.627C79 298.556 79.618 291.498 80.8468 284.535L82 278L83.6316 268.537C84.2095 265.185 84.5 261.79 84.5 258.389L84 258L75.5 252.5L71.2633 250.382C70.1037 249.802 68.825 249.5 67.5285 249.5H65.5118C65.1781 249.5 64.8518 249.401 64.5742 249.216C63.94 248.793 63.6672 247.998 63.9083 247.275L65.2016 243.395C65.3997 242.801 65.676 242.236 66.0233 241.715L72.5 232L78.5 222.5L90.7429 207.634C91.8975 206.232 93.3712 205.127 95.0406 204.411Z" fill="#D9D9D9"/>
<path d="M152 227L156 235L159.5 244.5L162 258L162.5 261.5" stroke="black" stroke-opacity="0.37" stroke-linecap="round"/>
<path d="M102 223.5L101 230L99 241L96.5 251L93.5 259.5L92 261.5L89.5 261L84.5 258.5" stroke="black" stroke-opacity="0.37" stroke-linecap="round"/>
<path d="M102.062 206.042L98.2854 203.524C97.7856 203.19 97.4515 202.66 97.3665 202.066C97.1773 200.741 98.2517 199.577 99.5867 199.66L143.764 202.393C144.865 202.461 145.882 203.009 146.544 203.892C146.845 204.293 147.063 204.751 147.184 205.238L147.349 205.896C147.439 206.256 147.287 206.633 146.972 206.83L145.924 207.485C144.315 208.49 142.579 209.276 140.762 209.822L138.72 210.434C135.259 211.472 131.664 212 128.05 212H126.923C124.313 212 121.707 211.772 119.136 211.318L114.5 210.5L105.147 207.524C104.054 207.176 103.016 206.677 102.062 206.042Z" fill="#BABABA"/>
<path d="M63.5 254.5L66.5 249.5H67.1866C68.3897 249.5 69.5869 249.668 70.7437 249.998C71.9088 250.331 73.0214 250.826 74.049 251.468L84.5 258C84.5 260.996 84.2873 263.989 83.8636 266.955L83.5 269.5L82.5 276.5C82 279.167 81 284.6 81 285C81 285.4 80 294.5 79.5 299L79 310.5C79 314.819 79.4903 319.125 80.4616 323.334L80.5 323.5L80.739 324.934C81.2395 327.937 81.0339 331.015 80.1388 333.924L80.1023 334.042C79.702 335.343 79.1592 336.596 78.4838 337.778C77.8298 338.923 77.0553 339.994 76.1735 340.974L75.2479 342.002C73.7625 343.653 71.9805 345.01 69.9945 346.003L69.6027 346.199C67.8828 347.059 66.0171 347.589 64.102 347.763C62.3796 347.92 60.6431 347.786 58.9653 347.366L58.8286 347.332C56.6337 346.783 54.5776 345.783 52.7917 344.394L51 343L49.3752 341.375C48.1311 340.131 47.0665 338.72 46.2121 337.182C45.4075 335.734 44.7965 334.186 44.3947 332.579L44.2244 331.898C43.7433 329.973 43.5 327.997 43.5 326.013V320L44 310.5C44.3325 306.843 45.0316 303.228 46.0869 299.71L47.5 295L51 282.5L51.3006 281.498C53.0977 275.508 55.337 269.659 58 264L63.5 254.5Z" fill="#BABABA"/>
<path d="M172.812 72.2341L172.5 72L186.158 67.4472C186.981 67.1731 187.887 67.3871 188.5 68L190 69.5L193.5 74L195.883 77.899C197.956 81.292 199.703 84.8742 201.099 88.5975C202.695 92.8533 203.824 97.2697 204.467 101.769L205 105.5L205.346 113.118C205.448 115.366 205.305 117.618 204.92 119.836L203.611 127.36C203.538 127.779 203.357 128.172 203.084 128.499L201.969 129.837C201.485 130.418 200.579 130.369 200.16 129.741C200.055 129.583 199.991 129.401 199.975 129.212L199 118C197.669 112.011 195.832 106.145 193.509 100.467L192.5 98L187.5 88.5L185 85L179.5 78.5C177.506 76.1737 175.263 74.0725 172.812 72.2341Z" fill="#333333"/>
<path d="M48 188.5L43 184L48 163L60.5 168.5L101.5 200.5L100.38 201.844C99.4678 202.939 98.3613 203.855 97.1161 204.547C95.4004 205.5 93.4709 206 91.5082 206H83C82.2 206 75.3333 203.667 72 202.5L70.1261 201.598C62.3896 197.873 54.9871 193.491 48 188.5Z" fill="#333333"/>
<path d="M213.5 138L212.576 137.16C209.572 134.429 205.939 132.485 202 131.5C199.123 131.18 196.665 133.103 196.213 135.962C195.014 143.534 193.5 153.178 193.5 153.5C193.5 153.846 184.785 169.405 178.654 180.293C177.157 182.95 177.963 186.308 180.5 188L181.404 188.452C184.098 189.799 187.068 190.5 190.079 190.5C191.357 190.5 192.631 190.374 193.883 190.123L194.594 189.981C196.195 189.661 197.762 189.195 199.278 188.589L200.672 188.031C203.218 187.013 205.661 185.753 207.968 184.271L209.428 183.332C210.807 182.446 212.108 181.443 213.316 180.335L214.016 179.694C216.317 177.585 218.184 175.047 219.512 172.224C220.825 169.434 221.588 166.418 221.759 163.339L221.823 162.183C221.941 160.067 221.833 157.945 221.503 155.851L221.016 152.77C220.673 150.598 220.062 148.478 219.196 146.457C218.073 143.836 216.534 141.413 214.64 139.282L213.5 138Z" fill="#AEAEAE"/>
<path d="M67 182.5L59.5 174.5C55.9264 170.277 53.7905 165.025 53.4019 159.506L51.5 132.5L42.5 107L50.5 69L105 69.5L175.5 65L188 80L189.127 82.3517C195.963 96.619 199.67 112.183 200 128L199.5 142L198.5 153L192.5 168.5L185.5 178.5L174.5 190.5L159 200L145.5 204L131 206L125.728 205.818C119.588 205.606 113.48 204.847 107.475 203.549L105.112 203.038C100.381 202.015 95.7566 200.551 91.2992 198.665L91.0752 198.57C87.0329 196.86 83.1492 194.797 79.4692 192.405C76.4935 190.471 73.6594 188.327 70.9885 185.99L67 182.5Z" fill="#BABABA"/>
<path d="M152.508 160.192L152.525 159.43C152.532 159.132 152.439 158.839 152.261 158.599C152.014 158.266 151.627 158.066 151.213 158.057L150.565 158.042C149.776 158.024 149.02 158.355 148.499 158.947L147.965 159.555C147.467 160.12 146.834 160.549 146.124 160.8L144.339 161.43L143.035 161.939C142.328 162.215 141.573 162.348 140.814 162.331C139.894 162.31 138.994 162.069 138.187 161.628L137.458 161.229C136.891 160.919 136.295 160.665 135.669 160.505C134.982 160.328 134.229 160.167 133.97 160.213C133.89 160.227 133.797 160.257 133.698 160.298C132.938 160.613 132.568 161.447 132.549 162.271C132.531 163.059 132.863 163.815 133.455 164.336L134.281 165.063C134.707 165.438 135.193 165.738 135.719 165.95L137.381 166.622C138.65 167.134 139.996 167.427 141.363 167.488C143.038 167.562 144.717 167.283 146.279 166.673L146.592 166.551C147.948 166.022 149.162 165.185 150.138 164.105L151.588 162.502C152.162 161.868 152.488 161.048 152.508 160.192Z" fill="#333333"/>
<path d="M106.24 98.8006L106.09 99.548C106.032 99.8409 106.073 100.145 106.206 100.412C106.392 100.783 106.738 101.048 107.144 101.129L107.78 101.256C108.553 101.411 109.356 101.216 109.971 100.723L110.604 100.217C111.191 99.7469 111.89 99.435 112.632 99.3113L114.5 99L115.872 98.7256C116.617 98.5767 117.383 98.5767 118.128 98.7256C119.029 98.9059 119.875 99.2998 120.593 99.8741L121.242 100.393C121.746 100.797 122.289 101.15 122.877 101.417C123.523 101.71 124.236 102 124.5 102C124.581 102 124.677 101.986 124.782 101.963C125.586 101.784 126.094 101.028 126.256 100.22C126.411 99.4465 126.216 98.6444 125.723 98.0287L125.035 97.1693C124.681 96.7263 124.254 96.3464 123.773 96.0458L122.253 95.0956C121.093 94.3705 119.818 93.8484 118.482 93.5516C116.845 93.1879 115.144 93.1712 113.5 93.5L113.17 93.566C111.743 93.8514 110.402 94.4652 109.253 95.3587L107.547 96.6857C106.872 97.211 106.408 97.9616 106.24 98.8006Z" fill="#333333"/>
<path d="M151.24 94.8006L151.09 95.548C151.032 95.8409 151.073 96.1451 151.206 96.4123C151.392 96.7831 151.738 97.0476 152.144 97.1289L152.78 97.256C153.553 97.4107 154.356 97.2155 154.971 96.7229L155.604 96.2171C156.191 95.7469 156.89 95.435 157.632 95.3113L159.5 95L160.872 94.7256C161.617 94.5767 162.383 94.5767 163.128 94.7256C164.029 94.9059 164.875 95.2998 165.593 95.8741L166.242 96.3933C166.746 96.7966 167.289 97.1505 167.877 97.4171C168.523 97.7101 169.236 98 169.5 98C169.581 98 169.677 97.9863 169.782 97.963C170.586 97.7843 171.094 97.0275 171.256 96.2198C171.411 95.4465 171.216 94.6444 170.723 94.0287L170.035 93.1693C169.681 92.7263 169.254 92.3464 168.773 92.0458L167.253 91.0956C166.093 90.3705 164.818 89.8484 163.482 89.5516C161.845 89.1879 160.144 89.1712 158.5 89.5L158.17 89.566C156.743 89.8514 155.402 90.4652 154.253 91.3587L152.547 92.6857C151.872 93.211 151.408 93.9616 151.24 94.8006Z" fill="#333333"/>
<path d="M9.46596 137.823L12 135.5L17 129.5L34 124L52 134.5L55.6649 147.327C57.2141 152.749 58 158.361 58 164L57.757 165.944C57.2599 169.921 55.7985 173.716 53.5 177L50.6285 180.487C47.9249 183.77 44.3968 186.275 40.406 187.745C38.1482 188.577 35.7781 189.064 33.3752 189.191L31.9818 189.264C29.0123 189.42 26.0367 189.11 23.1636 188.344C21.0615 187.783 19.0307 186.983 17.1111 185.959L16.3932 185.576C13.812 184.2 11.4486 182.449 9.38001 180.38C7.46897 178.469 5.82818 176.306 4.50319 173.95L3.87097 172.826C2.62985 170.62 1.70575 168.249 1.12592 165.785C0.381448 162.621 0.215405 159.349 0.635813 156.125L0.864184 154.375C1.28466 151.151 2.27899 148.029 3.80008 145.155C5.25592 142.405 7.17229 139.925 9.46596 137.823Z" fill="#CCCCCC"/>
<path d="M10.5931 125.933L11.9472 135.141C11.9724 135.313 12.1636 135.405 12.3137 135.317C16.0717 133.125 20.2051 131.652 24.5025 130.973L25.6704 130.789C26.8883 130.597 28.1244 130.5 29.3573 130.5C34.0021 130.5 38.5623 131.875 42.4269 134.451C43.474 135.149 44.4633 135.93 45.3854 136.786L46.2527 137.592C49.3952 140.51 52.0247 143.935 54.0312 147.726L54.1324 147.917C55.0429 149.637 55.8251 151.421 56.4728 153.256L57.9138 157.339C58.1222 157.93 58.9471 157.957 59.1938 157.381L61.5 152C64.1519 144.707 65.702 137.06 66.0995 129.311L66.5 121.5V113.02C66.5 110.019 66.1134 107.031 65.3496 104.129L64.4155 100.579C64.1401 99.5322 63.7083 98.5333 63.1348 97.6157L62.2303 96.1684C61.753 95.4049 61.5 94.5226 61.5 93.6221C61.5 93.3061 61.797 93.0742 62.1035 93.1509L63.0334 93.3833C64.6603 93.7901 66.186 94.5277 67.5153 95.5502L69.0025 96.6943C70.9852 98.2194 73.2265 99.3749 75.6748 99.8876C77.8988 100.353 80 100.749 80 101C80 101.324 82.4123 101.013 84.302 100.439C85.0549 100.21 85.5349 99.5113 85.591 98.7264C85.8572 94.9995 84.9687 91.2811 83.0463 88.0772L81.5161 85.5268C80.5082 83.847 79.3244 82.2794 77.9846 80.8502L73.1204 75.6617C72.7082 75.222 72.2468 74.8312 71.7453 74.4969L69.7381 73.1587C69.5838 73.0558 69.4682 72.9045 69.4095 72.7286C69.2177 72.1532 69.6848 71.5721 70.2879 71.6356L78.5 72.5L95 75L121 77.5H148C148.243 77.5 152.326 76.8828 156.687 76.2117C161.887 75.4115 167.009 74.1638 172 72.5L183.498 69.1618C186.159 68.3893 188.732 67.3428 191.177 66.0391C193.718 64.6837 196.106 63.0579 198.299 61.1901L202.229 57.8423C206.391 54.2968 210.058 50.2087 213.133 45.6875L213.895 44.5668C215.958 41.5318 217.675 38.2749 219.012 34.8571C220.663 30.6394 221.721 26.2134 222.158 21.7052L222.627 16.8528C222.875 14.2961 222.774 11.7176 222.327 9.18805L221.698 5.6247C221.567 4.8801 221.313 4.16259 220.945 3.50164L219.972 1.74931C219.372 0.66962 218.234 0 216.999 0C216.347 0 215.708 0.187496 215.16 0.540145L212.5 2.25L209 4.5L202.616 8.56233C195.905 12.8334 188.632 16.152 181.008 18.4231C173.045 20.7952 164.78 22 156.471 22H145L132.161 20.9728C124.067 20.3254 115.934 20.3436 107.844 21.0273L96.0732 22.022C88.4053 22.67 80.8866 24.5176 73.7917 27.4975L73.2915 27.7076C64.1971 31.5272 55.999 37.201 49.2205 44.3669L42.9507 50.995C42.3203 51.6614 41.5953 52.2313 40.7988 52.6864C39.2959 53.5452 38.0611 54.8047 37.2322 56.3244L36.1583 58.293C35.7205 59.0958 35.2052 59.8537 34.6198 60.5562C33.5486 61.8417 32.256 62.9252 30.8031 63.7554L29.4291 64.5405C27.1599 65.8372 25.1306 67.5143 23.4297 69.4987L21.686 71.533C18.5892 75.146 16.1933 79.3048 14.6213 83.7962L13.1952 87.8708C11.0782 93.9194 9.92412 100.263 9.77512 106.67L9.67467 110.989C9.55843 115.987 9.86566 120.987 10.5931 125.933Z" fill="#333333"/>
<path d="M31.7569 63.0355L32.5 63.5L33 63C32.6764 61.3822 31.8088 59.924 30.5414 58.8678L30.1519 58.5433C29.7184 58.182 29.2505 57.8639 28.755 57.5936L24 55L21.3117 53.9247C19.7776 53.311 18.1676 52.9075 16.5254 52.725C15.1793 52.5755 13.8207 52.5755 12.4746 52.725L10.5614 52.9376C10.1889 52.979 9.82358 53.0706 9.47552 53.2098L8.4723 53.6111C7.86169 53.8553 7.40552 54.3779 7.24602 55.0159C7.09099 55.636 7.23437 56.293 7.63366 56.7921L8.09879 57.3735C8.67667 58.0958 9.51358 58.5642 10.4315 58.6789L13 59L20.1592 59.3768C21.7161 59.4587 23.2615 59.6904 24.774 60.0685C27.2427 60.6857 29.599 61.6869 31.7569 63.0355Z" fill="#333333"/>
<path d="M36 46L36.3287 46.8219C37.4328 49.5819 38 52.5273 38 55.5L40.5 53.5C40.5 51.8358 40.6271 50.174 40.8801 48.5291L41.5 44.5L42.5 39L43 35.5L43.1482 34.018C43.3819 31.6812 43.3321 29.3248 43 27L42.5431 25.401C42.1925 24.1738 41.4169 23.1113 40.355 22.4033L39.7933 22.0289C39.276 21.684 38.6682 21.5 38.0465 21.5C36.802 21.5 35.6743 22.2329 35.1688 23.3701L34.4334 25.0248C34.1468 25.6698 33.9775 26.3607 33.9334 27.0651L33.6943 30.8913C33.5652 32.957 33.6718 35.0308 34.0121 37.0724L34.5 40L36 46Z" fill="#333333"/>
<ellipse cx="116.5" cy="124" rx="14.5" ry="19" fill="#333333"/>
<ellipse cx="161.5" cy="124" rx="14.5" ry="19" fill="#333333"/>
<circle cx="124.5" cy="121.5" r="5.5" fill="#E0E0E0"/>
<circle cx="168.5" cy="120.5" r="5.5" fill="#E0E0E0"/>
<defs>
<linearGradient id="paint0_linear_26_76" x1="98" y1="395" x2="85" y2="396" gradientUnits="userSpaceOnUse">
<stop offset="0.254808"/>
<stop offset="1" stop-color="#666666" stop-opacity="0.47"/>
</linearGradient>
<linearGradient id="paint1_linear_26_76" x1="151.5" y1="395.5" x2="164" y2="395.5" gradientUnits="userSpaceOnUse">
<stop/>
<stop offset="1" stop-color="#666666"/>
</linearGradient>
</defs>
</svg>
