<svg width="273" height="266" viewBox="0 0 273 266" fill="none" xmlns="http://www.w3.org/2000/svg">
<rect x="91.6311" y="-6.10352e-05" width="200" height="200" rx="5" transform="rotate(25 91.6311 -6.10352e-05)" fill="#50D295"/>
<rect y="68.404" width="200" height="200" rx="5" transform="rotate(-20 0 68.404)" fill="#DA3C76"/>
<rect x="154.355" y="26" width="113.4" height="48.0163" rx="5" transform="rotate(44 154.355 26)" fill="#86B8F5"/>
<path d="M34 32.9999C34 30.2385 36.2386 27.9999 39 27.9999H154.137C156.844 27.9999 159.06 30.1548 159.135 32.8611L160.869 95.2702C160.942 97.9235 163.076 100.057 165.73 100.13L229.137 101.867C231.844 101.941 234 104.157 234 106.865V223C234 225.761 231.761 228 229 228H39C36.2386 228 34 225.761 34 223V32.9999Z" fill="#4096FF"/>
</svg>
